<?xml version="1.0" standalone="no"?>
<!DOCTYPE svg PUBLIC "-//W3C//DTD SVG 20010904//EN"
 "http://www.w3.org/TR/2001/REC-SVG-20010904/DTD/svg10.dtd">
<svg version="1.0" xmlns="http://www.w3.org/2000/svg"
 width="1046.000000pt" height="1272.000000pt" viewBox="0 0 1046.000000 1272.000000"
 preserveAspectRatio="xMidYMid meet">
<metadata>
Created by potrace 1.13, written by Peter Selinger 2001-2015
</metadata>
<g transform="translate(0.000000,1272.000000) scale(0.100000,-0.100000)"
fill="#000000" stroke="none">
<path d="M0 9122 c0 -3133 2 -3614 15 -3727 85 -737 378 -1524 808 -2170 418
-628 909 -1099 1752 -1683 654 -452 1628 -1023 2481 -1454 l180 -91 315 160
c1109 566 2031 1126 2547 1546 242 197 666 614 825 812 127 157 258 358 338
519 65 129 78 147 176 250 521 548 844 1230 960 2031 16 112 17 368 20 3763
l3 3642 -365 0 -365 0 0 -4069 c0 -3584 -2 -4084 -15 -4188 -47 -362 -141
-755 -254 -1055 -76 -203 -86 -221 -149 -279 -150 -138 -594 -473 -839 -633
-654 -427 -1491 -821 -2463 -1159 -180 -63 -604 -197 -675 -213 -11 -3 93 53
230 124 891 459 1601 903 2020 1264 287 248 520 547 749 966 66 120 196 384
196 398 0 4 -33 -24 -72 -62 -123 -118 -286 -232 -571 -398 -467 -273 -969
-508 -1707 -801 -310 -123 -851 -327 -856 -322 -1 1 66 43 149 92 575 339
1123 768 1449 1133 368 413 573 688 705 949 63 126 66 130 194 251 205 197
352 392 483 643 144 276 248 603 296 934 20 138 20 177 20 3283 l0 3142 -360
0 -360 0 0 -3608 c0 -3925 3 -3701 -55 -3987 -29 -143 -81 -328 -124 -441 -30
-76 -35 -84 -99 -131 -362 -268 -995 -590 -1812 -921 -236 -95 -487 -192 -498
-192 -3 0 52 39 124 88 326 219 661 503 902 764 305 330 443 568 523 902 l24
99 95 72 c377 286 600 680 703 1240 l22 120 3 2703 2 2702 -365 0 -365 0 0
-3119 c1 -2226 -2 -3151 -10 -3232 -13 -127 -53 -357 -75 -434 -14 -45 -23
-56 -93 -106 -397 -288 -809 -485 -1237 -593 -94 -23 -255 -56 -277 -56 -6 0
17 20 51 45 34 25 98 80 143 123 266 255 443 567 522 923 23 105 50 318 41
327 -2 2 -34 -22 -71 -53 -134 -114 -320 -215 -470 -257 -106 -29 -336 -31
-434 -4 -157 42 -333 152 -413 259 -81 106 -137 273 -157 468 -7 68 -10 1126
-10 3200 l0 3099 -395 0 -395 0 0 -285 0 -285 -520 0 -520 0 0 285 0 285 -395
0 -395 0 0 -285 0 -285 -520 0 -520 0 0 285 0 285 -395 0 -395 0 0 -3598z"/>
<path d="M6030 9578 c0 -1928 -4 -3222 -10 -3347 -6 -112 -8 -206 -6 -208 8
-8 188 172 268 269 230 278 360 542 440 893 l23 100 3 2718 2 2717 -360 0
-360 0 0 -3142z"/>
<path d="M8780 8707 c0 -3012 -2 -3443 -15 -3588 -45 -474 -133 -910 -230
-1139 -19 -46 -33 -85 -31 -88 8 -8 160 112 244 192 409 392 676 1062 741
1859 8 86 11 1121 11 3158 l0 3029 -360 0 -360 0 0 -3423z"/>
</g>
</svg>
