<?xml version="1.0" standalone="no"?>
<!DOCTYPE svg PUBLIC "-//W3C//DTD SVG 20010904//EN"
 "http://www.w3.org/TR/2001/REC-SVG-20010904/DTD/svg10.dtd">
<svg version="1.0" xmlns="http://www.w3.org/2000/svg"
 width="96.000000pt" height="96.000000pt" viewBox="0 0 96.000000 96.000000"
 preserveAspectRatio="xMidYMid meet">
<metadata>
Created by potrace 1.13, written by Peter Selinger 2001-2015
</metadata>
<g transform="translate(0.000000,96.000000) scale(0.100000,-0.100000)"
fill="#000000" stroke="none">
<path d="M0 539 c0 -277 3 -418 10 -414 6 3 10 12 10 19 0 8 7 19 16 27 13 11
15 11 14 -2 -4 -25 12 -59 26 -59 10 0 13 -7 8 -25 -7 -29 15 -35 36 -10 16
19 30 10 30 -21 0 -28 12 -31 31 -8 10 12 10 22 1 48 -14 38 -15 62 -1 28 11
-29 34 -23 35 9 2 52 3 52 19 39 11 -9 19 -10 26 -3 16 16 -6 51 -33 55 -13 2
-22 11 -23 23 -1 11 -3 25 -5 30 -4 16 11 55 21 55 5 0 9 -12 9 -26 0 -22 3
-25 24 -20 21 5 23 3 18 -21 -4 -22 -2 -25 16 -21 14 4 22 0 25 -13 7 -25 27
-24 34 1 7 26 19 26 26 -1 8 -29 33 -18 29 12 -1 13 -4 36 -6 52 -2 21 1 27
16 27 10 0 18 -7 18 -15 0 -8 7 -15 16 -15 13 0 15 7 11 34 -5 30 -3 33 14 29
10 -3 19 -1 19 4 0 20 -37 43 -69 43 -20 0 -31 5 -30 13 1 6 1 17 0 24 -1 16
-66 36 -91 28 -23 -7 -28 13 -8 33 15 15 -16 52 -43 52 -10 0 -21 5 -24 10 -4
6 -27 10 -52 8 -45 -3 -46 -2 -69 42 -12 24 -20 48 -18 52 8 12 24 9 21 -3 -5
-25 23 -19 37 8 14 26 15 26 16 6 0 -12 5 -25 10 -28 16 -10 41 16 35 35 -3
11 1 20 11 24 11 4 18 0 21 -14 3 -11 12 -20 20 -20 12 0 14 7 9 31 -5 27 -4
30 9 19 12 -10 16 -9 22 6 4 11 13 25 20 32 11 11 13 9 13 -12 0 -26 22 -36
35 -16 8 13 35 1 35 -16 0 -8 5 -14 10 -14 20 0 23 32 6 61 -10 16 -12 29 -7
29 6 0 11 -4 11 -10 0 -5 7 -10 15 -10 10 0 15 10 15 27 l0 27 20 -22 c13 -14
20 -32 18 -49 -2 -22 2 -29 20 -31 25 -4 29 -24 7 -42 -20 -16 -10 -30 21 -30
42 0 64 -42 40 -79 -6 -9 -4 -18 7 -26 20 -15 22 -25 4 -25 -43 0 -71 -88 -72
-225 0 -70 4 -88 31 -145 17 -36 46 -84 63 -107 l31 -43 160 0 160 0 0 179 c0
134 -3 181 -12 184 -10 4 -10 6 0 6 9 1 12 36 12 140 0 139 0 139 -22 134
l-23 -5 23 20 c21 19 22 28 22 161 l0 141 -480 0 -480 0 0 -421z"/>
</g>
</svg>
